<svg id="Grupo_1014" data-name="Grupo 1014" xmlns="http://www.w3.org/2000/svg" xmlns:xlink="http://www.w3.org/1999/xlink" width="70.271" height="70.377" viewBox="0 0 70.271 70.377">
  <defs>
    <clipPath id="clip-path">
      <rect id="Rectángulo_3114" data-name="Rectángulo 3114" width="70.271" height="70.377" fill="#b3b3b3"/>
    </clipPath>
  </defs>
  <g id="Grupo_1013" data-name="Grupo 1013" clip-path="url(#clip-path)">
    <path id="Trazado_4270" data-name="Trazado 4270" d="M35.116,40.36a30.729,30.729,0,0,1,5.072.423c12.991,2.17,23.487,13.091,24.957,25.967a9.745,9.745,0,0,1,.033,1.237c-.013.849-.026,1.651.411,2.073s1.232.332,2.075.237a8.995,8.995,0,0,1,1.231-.084,3.621,3.621,0,0,0,1.3-.083,3.879,3.879,0,0,0,.035-1.381c-.811-12.065-6.477-21.557-16.838-28.211a39.819,39.819,0,0,0-5.746-2.869L46.41,37.13l.619-.482A20.483,20.483,0,0,0,49.455,5.885c-7.75-7.718-19.91-7.862-28.283-.334-3.951,3.552-6.388,9.643-6.21,15.518.128,4.23,1.649,10.359,8.162,15.538l.278.22-.133.313a.56.56,0,0,1-.271.366l-.055.029a6.31,6.31,0,0,1-.606.293,35.085,35.085,0,0,0-17.7,15.241A33.831,33.831,0,0,0,0,69.322a1.131,1.131,0,0,0,.159.787,1.016,1.016,0,0,0,.679.131c1.079-.062,2.118-.041,3.364-.011.492.019.618-.1.669-.611l.069-.7a43.508,43.508,0,0,1,.581-4.424A30.3,30.3,0,0,1,35.116,40.36m.035-4.908h-.029a15.453,15.453,0,0,1-15.3-15.321,15.519,15.519,0,0,1,15.294-15.3h.029a15.518,15.518,0,0,1,15.3,15.321,15.52,15.52,0,0,1-15.294,15.3" transform="translate(0 0)" fill="#b3b3b3"/>
  </g>
</svg>
