<svg xmlns="http://www.w3.org/2000/svg" width="77.458" height="81.683" viewBox="0 0 77.458 81.683">
  <path id="Icon_feather-phone" data-name="Icon feather-phone" d="M77.619,61.9V73.749a8.1,8.1,0,0,1-2.425,5.85,7.249,7.249,0,0,1-5.735,2.046,71.66,71.66,0,0,1-32.306-12.12A75.12,75.12,0,0,1,14.691,45.836,80.924,80.924,0,0,1,3.2,11.607,8.17,8.17,0,0,1,5.125,5.573,7.317,7.317,0,0,1,10.648,3h11.23a7.624,7.624,0,0,1,7.487,6.791,52.974,52.974,0,0,0,2.62,11.094,8.212,8.212,0,0,1-1.685,8.33l-4.754,5.014A61.635,61.635,0,0,0,48.008,57.917L52.762,52.9a7.208,7.208,0,0,1,7.9-1.777A46.04,46.04,0,0,0,71.18,53.89,7.784,7.784,0,0,1,77.619,61.9Z" transform="translate(-1.664 -1.5)" fill="none" stroke="#b3b3b3" stroke-linecap="round" stroke-linejoin="round" stroke-width="6"/>
</svg>
