<svg xmlns="http://www.w3.org/2000/svg" width="56.533" height="56.538" viewBox="0 0 56.533 56.538">
  <g id="Grupo_624" data-name="Grupo 624" transform="translate(-1272.661 -977.708)">
    <path id="Trazado_3585" data-name="Trazado 3585" d="M480.36,2633.954q-11.4,0-22.79,0c-3.451,0-5.474-2.012-5.474-5.446q-.005-22.848,0-45.695c0-3.361,2.042-5.392,5.417-5.393q22.845-.005,45.69,0c3.378,0,5.418,2.03,5.419,5.391q.006,22.9,0,45.8a4.971,4.971,0,0,1-5.362,5.337q-11.45.009-22.9,0m.026-39.861c-7.817,0-15.633.016-23.45-.019-1.006,0-1.409.2-1.4,1.32.04,10.863.022,21.727.026,32.591,0,1.937.562,2.506,2.482,2.506q22.294.006,44.588,0c1.99,0,2.535-.553,2.535-2.563,0-10.827-.012-21.654.023-32.48,0-1.043-.27-1.383-1.349-1.377-7.817.042-15.633.023-23.45.023m-.12-3.461c7.89,0,15.78-.015,23.669.019.97,0,1.279-.285,1.248-1.252-.065-2.054-.011-4.11-.023-6.165-.01-1.727-.607-2.348-2.3-2.349q-22.513-.009-45.027,0c-1.641,0-2.256.629-2.269,2.272-.016,1.982-.006,3.964,0,5.946,0,1.526,0,1.529,1.482,1.529h23.229" transform="translate(820.569 -1599.71)" fill="#b3b3b3"/>
    <path id="Trazado_3586" data-name="Trazado 3586" d="M485.611,2648.081c2.639,0,5.278-.009,7.917,0,1.5.007,2.079.57,2.083,2.049q.018,6.379,0,12.756c0,1.5-.571,2.078-2.05,2.081q-7.917.016-15.834,0c-1.5,0-2.079-.571-2.083-2.048q-.017-6.378,0-12.756c0-1.5.571-2.073,2.05-2.081,2.639-.014,5.278,0,7.917,0m-.067,13.432c1.871,0,3.742-.016,5.613.009.67.009,1.015-.164,1.007-.921-.029-2.715-.022-5.431,0-8.145,0-.649-.217-.925-.893-.921q-5.613.026-11.226,0c-.726,0-.958.277-.952.978.025,2.678.033,5.357,0,8.034-.011.81.344.992,1.064.98,1.8-.032,3.6-.01,5.393-.011" transform="translate(803.629 -1650.551)" fill="#b3b3b3"/>
    <path id="Trazado_3587" data-name="Trazado 3587" d="M497.34,2719.526q9.57,0,19.139,0a5.292,5.292,0,0,1,1.2.058,1.722,1.722,0,0,1,0,3.34,5.235,5.235,0,0,1-1.2.059q-19.139,0-38.278,0a5.264,5.264,0,0,1-1.2-.058,1.721,1.721,0,0,1,0-3.339,5.236,5.236,0,0,1,1.2-.059q9.57,0,19.139,0" transform="translate(803.586 -1701.957)" fill="#b3b3b3"/>
    <path id="Trazado_3588" data-name="Trazado 3588" d="M497.465,2743.075q9.68,0,19.359-.006a1.916,1.916,0,0,1,2.026,1,1.709,1.709,0,0,1-1.381,2.448,8.284,8.284,0,0,1-.989.022q-19.139,0-38.278,0a5.655,5.655,0,0,1-1.1-.037,1.722,1.722,0,0,1,.014-3.386,5.967,5.967,0,0,1,1.1-.035q9.624,0,19.249,0" transform="translate(803.58 -1718.898)" fill="#b3b3b3"/>
    <path id="Trazado_3589" data-name="Trazado 3589" d="M568.3,2671.746q3.631,0,7.262,0a8.962,8.962,0,0,1,.989.024,1.784,1.784,0,0,1,.034,3.567,7.945,7.945,0,0,1-.989.028H560.85a8.847,8.847,0,0,1-.99-.024,1.785,1.785,0,0,1-.034-3.567,8.038,8.038,0,0,1,.989-.027q3.741,0,7.483,0" transform="translate(744.284 -1667.58)" fill="#b3b3b3"/>
    <path id="Trazado_3590" data-name="Trazado 3590" d="M568.217,2699.437c-2.674,0-5.347.008-8.021,0-1.362-.006-2.072-.608-2.077-1.717s.707-1.734,2.057-1.736q8.021-.013,16.043,0c1.362,0,2.072.608,2.077,1.716s-.707,1.731-2.057,1.736c-2.674.011-5.347,0-8.021,0" transform="translate(744.282 -1685.013)" fill="#b3b3b3"/>
    <path id="Trazado_3591" data-name="Trazado 3591" d="M477.37,2601.013a1.72,1.72,0,1,1-1.684,1.756,1.66,1.66,0,0,1,1.684-1.756" transform="translate(803.594 -1616.687)" fill="#b3b3b3"/>
    <path id="Trazado_3592" data-name="Trazado 3592" d="M502.677,2602.731a1.721,1.721,0,1,1-1.721-1.721,1.663,1.663,0,0,1,1.721,1.721" transform="translate(786.649 -1616.686)" fill="#b3b3b3"/>
    <path id="Trazado_3593" data-name="Trazado 3593" d="M524.508,2604.453a1.721,1.721,0,1,1,1.722-1.72,1.663,1.663,0,0,1-1.722,1.72" transform="translate(769.703 -1616.686)" fill="#b3b3b3"/>
  </g>
</svg>
